# xmcd
#
# Track frame offsets: 
#        150
#        23095
#        31355
#        59203
#        79633
#        107720
#        139978
#        149579
#        174520
#        200461
#        234605
#        249007
#        277901
#        304991
#
# Disc length: 4443 seconds
#
# Revision: 1
# Processed by: cddbd v1.5.2PL0 Copyright (c) Steve Scherf et al.
# Submitted via: ExactAudioCopy v0.95b4
#
DISCID=c611590e
DTITLE=Various Artist - Nu Jazz [CD 2]
DYEAR=2003
DGENRE=Ambient
TTITLE0=Strangel/Morados-Tacoa
TTITLE1=Lughole/Morados-Tacoa
TTITLE2=Early Bird/Morados-Tacoa
TTITLE3=Blueberry Muffin/Morados-Tacoa
TTITLE4=Splash/Morados-Tacoa
TTITLE5=Judi Dench/Morados-Tacoa
TTITLE6=Moribund/Morados-Tacoa
TTITLE7=Plankton/Morados-Tacoa
TTITLE8=Legroom/Morados-Tacoa
TTITLE9=Cattle Grid/Morados-Tacoa
TTITLE10=Hodneedoo/Arturo
TTITLE11=Sheep Milk/Morados-Tacoa
TTITLE12=Comedic Dives/Morados-Tacoa
TTITLE13=A.S.A.P./Maran-Morados-Tacoa
EXTD=YEAR: 2003
EXTT0=
EXTT1=
EXTT2=
EXTT3=
EXTT4=
EXTT5=
EXTT6=
EXTT7=
EXTT8=
EXTT9=
EXTT10=
EXTT11=
EXTT12=
EXTT13=
PLAYORDER=
